<mxfile host="app.diagrams.net" modified="2022-06-17T13:08:07.383Z" agent="5.0 (Windows NT 10.0; Win64; x64) AppleWebKit/537.36 (KHTML, like Gecko) Chrome/102.0.5005.124 Safari/537.36 Edg/102.0.1245.41" etag="8BHgGUZkMyHGVQZBKbRe" version="20.0.1" type="github">
  <diagram id="FdwShXHzM7y48ewqdUtZ" name="Page-1">
    <mxGraphModel dx="1422" dy="794" grid="1" gridSize="10" guides="1" tooltips="1" connect="1" arrows="1" fold="1" page="1" pageScale="1" pageWidth="827" pageHeight="1169" math="0" shadow="0">
      <root>
        <mxCell id="0" />
        <mxCell id="1" parent="0" />
        <mxCell id="7ddfxqqfTt6fFStabnbw-3" value="" style="edgeStyle=orthogonalEdgeStyle;rounded=0;orthogonalLoop=1;jettySize=auto;html=1;" edge="1" parent="1" source="7ddfxqqfTt6fFStabnbw-1" target="7ddfxqqfTt6fFStabnbw-2">
          <mxGeometry relative="1" as="geometry" />
        </mxCell>
        <mxCell id="7ddfxqqfTt6fFStabnbw-1" value="film" style="rounded=0;whiteSpace=wrap;html=1;" vertex="1" parent="1">
          <mxGeometry x="410" y="220" width="120" height="60" as="geometry" />
        </mxCell>
        <mxCell id="7ddfxqqfTt6fFStabnbw-2" value="1:n" style="rhombus;whiteSpace=wrap;html=1;" vertex="1" parent="1">
          <mxGeometry x="240" y="210" width="80" height="80" as="geometry" />
        </mxCell>
        <mxCell id="7ddfxqqfTt6fFStabnbw-6" value="" style="edgeStyle=orthogonalEdgeStyle;rounded=0;orthogonalLoop=1;jettySize=auto;html=1;" edge="1" parent="1" source="7ddfxqqfTt6fFStabnbw-5" target="7ddfxqqfTt6fFStabnbw-2">
          <mxGeometry relative="1" as="geometry" />
        </mxCell>
        <mxCell id="7ddfxqqfTt6fFStabnbw-5" value="acteur" style="rounded=0;whiteSpace=wrap;html=1;" vertex="1" parent="1">
          <mxGeometry x="40" y="220" width="120" height="60" as="geometry" />
        </mxCell>
        <mxCell id="7ddfxqqfTt6fFStabnbw-7" value="ticket" style="rounded=0;whiteSpace=wrap;html=1;" vertex="1" parent="1">
          <mxGeometry x="410" width="120" height="60" as="geometry" />
        </mxCell>
        <mxCell id="7ddfxqqfTt6fFStabnbw-9" value="" style="edgeStyle=orthogonalEdgeStyle;rounded=0;orthogonalLoop=1;jettySize=auto;html=1;" edge="1" parent="1" source="7ddfxqqfTt6fFStabnbw-8" target="7ddfxqqfTt6fFStabnbw-7">
          <mxGeometry relative="1" as="geometry" />
        </mxCell>
        <mxCell id="7ddfxqqfTt6fFStabnbw-10" value="" style="edgeStyle=orthogonalEdgeStyle;rounded=0;orthogonalLoop=1;jettySize=auto;html=1;" edge="1" parent="1" source="7ddfxqqfTt6fFStabnbw-8" target="7ddfxqqfTt6fFStabnbw-1">
          <mxGeometry relative="1" as="geometry" />
        </mxCell>
        <mxCell id="7ddfxqqfTt6fFStabnbw-8" value="n:1" style="rhombus;whiteSpace=wrap;html=1;" vertex="1" parent="1">
          <mxGeometry x="430" y="100" width="80" height="80" as="geometry" />
        </mxCell>
        <mxCell id="7ddfxqqfTt6fFStabnbw-11" value="genre" style="rounded=0;whiteSpace=wrap;html=1;" vertex="1" parent="1">
          <mxGeometry x="707" y="220" width="120" height="60" as="geometry" />
        </mxCell>
        <mxCell id="7ddfxqqfTt6fFStabnbw-13" value="" style="edgeStyle=orthogonalEdgeStyle;rounded=0;orthogonalLoop=1;jettySize=auto;html=1;" edge="1" parent="1" source="7ddfxqqfTt6fFStabnbw-12" target="7ddfxqqfTt6fFStabnbw-1">
          <mxGeometry relative="1" as="geometry" />
        </mxCell>
        <mxCell id="7ddfxqqfTt6fFStabnbw-14" value="" style="edgeStyle=orthogonalEdgeStyle;rounded=0;orthogonalLoop=1;jettySize=auto;html=1;" edge="1" parent="1" source="7ddfxqqfTt6fFStabnbw-12" target="7ddfxqqfTt6fFStabnbw-11">
          <mxGeometry relative="1" as="geometry" />
        </mxCell>
        <mxCell id="7ddfxqqfTt6fFStabnbw-12" value="1:n" style="rhombus;whiteSpace=wrap;html=1;" vertex="1" parent="1">
          <mxGeometry x="590" y="210" width="80" height="80" as="geometry" />
        </mxCell>
        <mxCell id="7ddfxqqfTt6fFStabnbw-15" value="klant" style="rounded=0;whiteSpace=wrap;html=1;" vertex="1" parent="1">
          <mxGeometry x="414" y="380" width="120" height="60" as="geometry" />
        </mxCell>
      </root>
    </mxGraphModel>
  </diagram>
</mxfile>
